# xmcd CD database file
#
# Track frame offsets:
#	150
#	14434
#	28912
#	42345
#	56527
#	75302
#	87325
#	98604
#	115140
#	129042
#	144097
#	155627
#	170795
#	184825
#	198065
#	210725
#
# Disc length: 2971 seconds
#
# Revision: 0
# Processed by: cddbd v1.5.2PL0 Copyright (c) Steve Scherf et al.
# Submitted via: CDex 1.51
#
DISCID=ca0b9910
DTITLE=Mastruz com Leite - Solando Pra Você Dançar e Cantar Volume I
DYEAR=1900
DGENRE=Forró
TTITLE0=minha verdade - cara metade
TTITLE1=rasões
TTITLE2=seis cordas - rock do sertão
TTITLE3=somos mastruz com leite
TTITLE4=na ponta do pé - forrobodó
TTITLE5=onde canta o sabiá
TTITLE6=pedaço de solidão
TTITLE7=olhinhos de fogueira - só o filé - vamos pra fogueira
TTITLE8=princípio, meio e fim - barreiras
TTITLE9=parceira de forró - timidez
TTITLE10=dor de saudade
TTITLE11=cabeça com bob's - barriga crescida
TTITLE12=me diga - fom fomrom fom fom
TTITLE13=raízes do nordeste
TTITLE14=noda de cajú
TTITLE15=eu não sou galinha não
EXTD=
EXTT0=
EXTT1=
EXTT2=
EXTT3=
EXTT4=
EXTT5=
EXTT6=
EXTT7=
EXTT8=
EXTT9=
EXTT10=
EXTT11=
EXTT12=
EXTT13=
EXTT14=
EXTT15=
PLAYORDER=
